<svg width="14" height="13" viewBox="0 0 14 13" fill="none" xmlns="http://www.w3.org/2000/svg">
<path id="Vector" d="M13.117 6.43993C13.1173 7.71355 12.7408 8.9588 12.035 10.0189C11.3308 11.0771 10.3285 11.9026 9.15499 12.3909C7.98187 12.8791 6.68999 13.007 5.44391 12.7584C4.19783 12.5098 3.05395 11.8959 2.15799 10.9949C1.26015 10.0923 0.649024 8.94456 0.401366 7.69577C0.153708 6.44698 0.280558 5.15286 0.76599 3.97593C1.25138 2.80003 2.07437 1.79436 3.13099 1.08593C4.36518 0.258632 5.84859 -0.113845 7.3272 0.0322823C8.80581 0.17841 10.1876 0.834052 11.236 1.88693C12.4403 3.0962 13.1166 4.73325 13.117 6.43993Z" fill="white"/>
</svg>
